<svg xmlns="http://www.w3.org/2000/svg" viewBox="0 0 155.33 194.67"><defs><style>.cls-1{fill:none;}.cls-2{fill:#7e2921;}.cls-3{fill:#a9a5a4;}.cls-4{fill:#7f2b22;}.cls-5{fill:#a8a4a3;}</style></defs><title>logo</title><g id="logo"><path class="cls-1" d="M54.12,74.48l1,.34.37-2.71Z"/><path class="cls-1" d="M58.46,169.9l3.44-6.41c1.59,5.38,2.64,9.31,4,13.13a3.43,3.43,0,0,0,2.34,2c.72,0,1.91-1.13,2.21-2a72.76,72.76,0,0,0,1.7-7.65l5.24,12.9,4.5-12.63,3.47,5.43h1.31c.56-3.64,1.42-7.28,1.52-10.93,0-1.17-1.78-2.73-3.1-3.41-.47-.24-2.52,1.41-3,2.54-1.19,3-3.17,3.21-6,2.81a50.84,50.84,0,0,0-7.44-.08l-4.79-9-3.76,3.49c-4.53-5.81-3.37-18.24,2-24.81l-5.81-3.37h0l-5.78-.64c.79,2.1.92,4.48,2.1,5.27,5,3.34,3.9,8.25,3.92,12.91,0,4.14,0,8.28,0,12.41h0Z"/><path class="cls-1" d="M91.55,126.21a25.65,25.65,0,0,1,0-3.36A25.65,25.65,0,0,0,91.55,126.21Z"/><path class="cls-1" d="M91.94,120.7a12.87,12.87,0,0,0-.36,2.15A12.88,12.88,0,0,1,91.94,120.7Z"/><path class="cls-1" d="M91.77,131.88,85.41,137c8,6.31,9.25,9.26,8.14,19.7-1.43.21-3.38,0-4,.74s.1,2.61.42,3.93c.53,2.19,1.22,4.34,1.84,6.51l3.49-4.49L98,164.45c2.67-5.34,2.07-8-.52-8.6-4.22-8.47-2.15-16.39,1.16-24.63l-6.91.65c.05-1.85-.14-3.77-.22-5.67C91.63,128.1,91.82,130,91.77,131.88Z"/><path class="cls-1" d="M84.34,106.29a5.88,5.88,0,0,0-.32.64,5.75,5.75,0,0,1,.32-.64Z"/><path class="cls-1" d="M75,152.73c-3.57-.2-7-1.88-11.76-3.26,3.62,3.82,5.87,6.61,8.58,8.84a4.84,4.84,0,0,0,4.5.17,97.79,97.79,0,0,0,8.55-6.71C81.47,151.45,78.19,152.91,75,152.73Z"/><path class="cls-1" d="M84.81,107.48h0l-.23-.08Z"/><polygon class="cls-2" points="138.61 132.89 138.6 132.89 138.6 132.89 138.61 132.89"/><path class="cls-2" d="M152.47,83.95c-1.18-9-4.48-17.37-9.62-26V70.77C133,64.66,132.51,54.15,128.2,45.54l1.94,20.58-1.49.15c-.34-1.39-.62-2.81-1-4.18-1.41-4.6-2.43-9.4-4.46-13.72-1.59-3.37-4.62-6-6.73-9.2C111.3,31.49,103.48,25.88,99.92,17c-1.71-4.29-4.38-8.2-6.62-12.28-.24,6.13-.59,12.4,1.22,18a190.23,190.23,0,0,0,12,29.35c4.51,8.61,10.45,16.52,16.17,24.44,5.17,7.16,7.21,14.77,5.45,23.43-.79,3.9-2.67,6.38-4.43,6.69l2.14-12.61-2.19-.4c-.29,1.59-.51,3.19-.89,4.75s-.88,2.81-1.32,4.21l-1.27-.41a8.45,8.45,0,0,1-.08-2.25c3-12.56-2-22.2-11.26-30.12-3.82-3.28-7.71-6.31-8.42-11.76a14.69,14.69,0,0,0-.91-2.74l-1.91,1.41c1,4.44-.28,9.19,4.16,13.12,8.15,7.23,8.36,18.67,1,24.15-.41,3.76-.69,7.54-1.26,11.28-.6,3.92-1.81,7.5-5.46,9.9a9.3,9.3,0,0,0-4.14,5.6,12.88,12.88,0,0,0-.36,2.15,25.65,25.65,0,0,0,0,3.36c.08,1.89.27,3.82.22,5.67l6.91-.65c-3.31,8.25-5.38,16.16-1.16,24.63,2.59.56,3.18,3.26.52,8.6l-2.68-1.06-3.49,4.49-4.54,13.62,2.53,2a33.66,33.66,0,0,0,2.62-4.07c1.42-3.05,2.63-6.2,3.93-9.3l1.26.38.62,4,1.5.24,2.85-9.86c2.8-3.41,5.37-7.05,8.5-10.13,1.79-1.76,2.15-2.86.88-5a23.53,23.53,0,0,1-3.21-9l3.95,3.06c-1.38-5.38-3.19-10.69-4-16.16s-.38-11,4-15.63c-2.87,12-1.77,23,5.89,32.88l2,2,3-1,4-3,2-2,7-7,2-1,9-14,2-11q0-2.51-.05-5l1-5,1-2h0C151.94,91.91,153,87.83,152.47,83.95Z"/><path class="cls-3" d="M90,161.38c-.32-1.32-1-3.16-.42-3.93s2.54-.53,4-.74c1.11-10.44-.1-13.4-8.14-19.7l6.35-5.13c.05-1.85-.14-3.77-.22-5.67a25.65,25.65,0,0,1,0-3.36,12.87,12.87,0,0,1,.36-2.15,9.3,9.3,0,0,1,4.14-5.6c3.65-2.4,4.86-6,5.46-9.9.57-3.74.85-7.52,1.26-11.28L86.13,50a201.1,201.1,0,0,0,.51,38.49c-6.48,1.52-7.53-4.25-11-6.58L67.88,91.2l-4.94-3.88L67,112.24c6.69-3.84,4.92-10,6.68-15.43a6.8,6.8,0,0,1,2.81,3.38c.93,2.94,1.1,6.19,2.41,8.91,1.51,3.14,3.92,5.85,5.93,8.74l-1.77-.11c-1.53,3.94-2.92,8-4.69,11.79a4.36,4.36,0,0,1-3.29,2.1,5.58,5.58,0,0,1-4-1.9c-2.27-3.16-4.15-6.6-6.12-10-.55-.93-1.55-2.45-1.22-2.91,2.83-4,.49-7.91.07-11.88-.76-7.22-1.9-14.49-1.67-21.7.18-5.68,2-11.35,3.41-16.93,1.76-6.8,0-13-2.55-19.43-1,1.8-1,3.76-1.48,5.56-1.88,6.41-3.93,12.76-5.92,19.13.15-12.11.12-12.13-3.39-13.33-1.55,4.47-3.06,8.94-4.65,13.39-1.46,4.1-3,8.17-4.51,12.27-.53,1.48-1.37,3-1.34,4.51.11,4.62.57,9.22.92,14.2,1.19.26,5.43.17,5.92,1.48,2.44,6.51,8.68,11.81,6.85,19.76l.9,8.06h0l5.81,3.37c-5.41,6.57-6.56,19-2,24.81l3.76-3.49,4.79,9a50.84,50.84,0,0,1,7.44.08c2.79.4,4.78.23,6-2.81.44-1.13,2.49-2.78,3-2.54,1.33.67,3.13,2.24,3.1,3.41-.1,3.65-1,7.29-1.52,10.93H85.33l-3.47-5.43-4.5,12.63L72.12,169a72.76,72.76,0,0,1-1.7,7.65c-.3.87-1.49,2-2.21,2a3.43,3.43,0,0,1-2.34-2c-1.32-3.83-2.37-7.75-4-13.13l-3.44,6.41L61.31,183h0l.82,1c0,2.82,0,5.64,0,8.5l2.46-.25,3.33,1.14L78.49,192l8.83-10.51,4.54-13.62C91.23,165.72,90.55,163.57,90,161.38ZM88.47,94.23,88,104.41l-1.52-.07-.62-10.13ZM54.12,74.48l1.4-2.37-.37,2.71Zm22.21,84a4.84,4.84,0,0,1-4.5-.17c-2.71-2.24-5-5-8.58-8.84,4.71,1.39,8.19,3.07,11.76,3.26,3.18.18,6.45-1.29,9.88-1A97.79,97.79,0,0,1,76.34,158.48ZM85,107c-.07.14-.17.3-.23.43h0l-.23-.08c-.24-.08-.5-.15-.56-.3a.28.28,0,0,1,0-.17,5.88,5.88,0,0,1,.32-.64h0c.28.12.7.18.78.38A.5.5,0,0,1,85,107Z"/><path class="cls-2" d="M56.59,149.48c0-4.66,1.1-9.57-3.92-12.91-1.19-.79-1.32-3.17-2.1-5.27l5.78.64h0l-.9-8.06c-.84-2.09-1.56-4.24-2.56-6.26-3-6.12-5-12.76-14.16-13.25-3.69-.2-11.17-1.1-8.8-9.21.13-.46-.84-1.39-1.47-1.89C26,91.36,26.74,89.37,28,87.14c3.41-6,6.54-12.14,10.06-18.06,4.71-7.91,8-16.77,16.58-22,2.62-1.61,4.65-5.38,5.43-8.54,2.25-9.14,3.84-18.44,5.43-27.72.47-2.72.07-5.58.07-8.38L64.2,2.32C62,7.11,59.95,11.92,57.71,16.66c-1.81,3.83-4.28,4.18-6.56,1.29C45.32,26.08,40,34.4,33.69,41.94c-3.12,3.75-3,7.26-2.88,11.46.1,2.75-.12,6.12-1.61,8.2-5.06,7.1-10.74,13.76-16.79,21.33l-4.51-16C.64,79.51-.08,95,7,103.49L4.37,86.66l1.89-.42c.9,3.36,2.86,6.84,2.49,10.06-1,8.49-.68,16.35,4.78,23.46,4.28,5.57,6.75,12.68,14.29,15.33,2.64.93,4,.57,5.15-1.88,2.74-5.8,5.39-11.57.74-18l1.83-.66,4.08,6.34h1l1.63-4.1c5.12,5.76,4.06,11.72-2.14,17.28l1.53-12.18h-2c-1.64,4.26-3.16,8.58-5,12.77-1,2.31-.89,3.44,1.94,3.18A6,6,0,0,1,37.5,136c.17-.17,1,.37,1.59.59l-1.47,1.32a19.45,19.45,0,0,0,.17,3c.49,2.34,2,4.91,1.4,6.9s-3.27,3-4.69,4.22l9.71,8.39,4.55-8.1,5.86,9.63h1.92C56.57,157.76,56.61,153.62,56.59,149.48Z"/><path class="cls-4" d="M58.46,169.9l-1.91-8H54.63v5.53l-1.19.09L47.93,160l-1.45.47V172.9c3.17-4.14,5.45-3.41,7.49-.17.88,1.39,1.77,2.78,2.66,4.17l4,6.08a1.6,1.6,0,0,1,.72,0h0Z"/><path class="cls-2" d="M37.5,136a6,6,0,0,0-.91,1.86l1,0,1.47-1.32C38.55,136.37,37.67,135.83,37.5,136Z"/><path class="cls-4" d="M40.61,120.89h-1c0,.33,0,.67,0,1h2Z"/><path class="cls-5" d="M88,104.41l.51-10.18H85.83l.62,10.13Z"/><path class="cls-5" d="M84.34,106.29h0a5.75,5.75,0,0,0-.32.64.28.28,0,0,0,0,.17c.06.15.31.22.56.3l.23.08h0c.06-.14.16-.29.23-.43a.5.5,0,0,0,.08-.37C85,106.47,84.62,106.41,84.34,106.29Z"/></g><g id="Retouche"><polygon class="cls-2" points="40.61 120.89 41.62 121.9 40.59 121.9 40.41 120.9 40.61 120.89"/><rect class="cls-2" x="39.62" y="120.82" width="0.96" height="1.24"/><rect class="cls-2" x="36.02" y="135.54" width="3.6" height="2.25"/><rect class="cls-3" x="82.08" y="92.42" width="16" height="18.58"/></g></svg>